<?xml version="1.0" encoding="utf-8"?>
<!-- Generator: Adobe Illustrator 17.0.0, SVG Export Plug-In . SVG Version: 6.00 Build 0)  -->
<!DOCTYPE svg PUBLIC "-//W3C//DTD SVG 1.1//EN" "http://www.w3.org/Graphics/SVG/1.1/DTD/svg11.dtd">
<svg version="1.1" id="Layer_1" xmlns="http://www.w3.org/2000/svg" xmlns:xlink="http://www.w3.org/1999/xlink" x="0px" y="0px"
	 width="158.768px" height="35px" viewBox="0 -5.591 158.768 35" enable-background="new 0 -5.591 158.768 35" xml:space="preserve"
	>
<path display="none" fill="#1B7EBA" d="M0,6h129.996v114.996l-65.319-10L0,120.996V6z"/>
<path display="none" fill="#2697DE" d="M-101.835-93.218h333.666v305.432L64.174,186.547l-166.009,25.667V-93.218z"/>
<g>
	<g>
		<path class="logo--shape" fill="#FFFFFF" d="M27.314-5.591c9.306,11.478,12.296,35,12.296,35c7.904-4.615,15.093-13.186,15.093-13.186
			S47.428,0.124,27.314-5.591z M25.393,26.695c4.935-5.353,7.4-17.445,7.4-17.445s-7.128-4.968-17.879-5.235
			C24.423,13.376,25.393,26.695,25.393,26.695z M56.128,15.578c0,0,10.359,6.812,14.382,13.463c0,0,5.777-7.897,8.338-17.317
			C70.72,8.903,56.128,15.578,56.128,15.578z M-0.37,9.881c8.634,4.864,10.881,15.537,10.881,15.537
			c7.086-5.281,7.107-13.154,7.107-13.154S7.761,8.516-0.37,9.881z"/>
	</g>
</g>
<g>
	<path class="logo--text" fill="#FFFFFF" d="M99.844,19.089l0.799-0.931c0.931,1.06,2.444,2.097,4.521,2.097c2.942,0,3.785-1.643,3.785-2.876
		c0-4.239-8.651-2.032-8.651-7.073c0-2.357,2.12-3.851,4.737-3.851c2.141,0,3.786,0.757,4.888,2.033l-0.821,0.909
		c-1.039-1.254-2.508-1.816-4.131-1.816c-1.925,0-3.374,1.103-3.374,2.659c0,3.698,8.652,1.665,8.652,7.052
		c0,1.86-1.233,4.087-5.127,4.087C102.743,21.381,100.947,20.408,99.844,19.089z"/>
	<path class="logo--text" fill="#FFFFFF" d="M113.104,24.172c0.239,0.108,0.648,0.172,0.909,0.172c0.693,0,1.168-0.282,1.6-1.276l0.822-1.86
		l-4.434-10.532h1.253l3.806,9.127l3.764-9.127h1.276l-5.407,12.739c-0.562,1.319-1.449,1.947-2.659,1.947
		c-0.367,0-0.844-0.066-1.125-0.153L113.104,24.172z"/>
	<path class="logo--text" fill="#FFFFFF" d="M132.138,21.122v-1.666c-0.736,1.082-2.076,1.925-3.635,1.925c-2.768,0-4.65-2.121-4.65-5.472
		c0-3.308,1.881-5.493,4.65-5.493c1.493,0,2.813,0.756,3.635,1.946V6.694h1.147v14.427L132.138,21.122L132.138,21.122z
		 M132.138,18.504v-5.169c-0.607-1.017-1.968-1.904-3.44-1.904c-2.314,0-3.655,1.948-3.655,4.478s1.341,4.455,3.655,4.455
		C130.17,20.364,131.531,19.5,132.138,18.504z"/>
	<path class="logo--text" fill="#FFFFFF" d="M135.601,19.954l1.34-2.336c0.562,0.54,1.299,1.038,2.294,1.038c1.362,0,2.249-0.931,2.249-2.314V6.696
		h3.092v9.689c0,3.395-2.142,4.995-5.082,4.995C138.022,21.381,136.638,20.97,135.601,19.954z"/>
	<path class="logo--text" fill="#FFFFFF" d="M146.847,19.089l1.688-2.402c1.016,1.061,2.596,1.97,4.584,1.97c1.71,0,2.51-0.758,2.51-1.601
		c0-2.508-8.305-0.757-8.305-6.185c0-2.402,2.075-4.391,5.472-4.391c2.292,0,4.196,0.692,5.623,2.012l-1.708,2.292
		c-1.168-1.082-2.726-1.579-4.197-1.579c-1.297,0-2.032,0.562-2.032,1.427c0,2.271,8.284,0.736,8.284,6.122
		c0,2.638-1.904,4.628-5.775,4.628C150.201,21.381,148.211,20.453,146.847,19.089z"/>
</g>
</svg>
