<?xml version="1.0" encoding="utf-8"?>
<!-- Generator: Adobe Illustrator 15.0.0, SVG Export Plug-In . SVG Version: 6.00 Build 0)  -->
<!DOCTYPE svg PUBLIC "-//W3C//DTD SVG 1.1//EN" "http://www.w3.org/Graphics/SVG/1.1/DTD/svg11.dtd">
<svg version="1.1" id="Layer_1" xmlns="http://www.w3.org/2000/svg" xmlns:xlink="http://www.w3.org/1999/xlink" x="0px" y="0px"
	 width="129.995px" height="120.996px" viewBox="0 0 129.995 120.996" enable-background="new 0 0 129.995 120.996"
	 xml:space="preserve">
<path fill-rule="evenodd" clip-rule="evenodd" fill="#1B7EBA" d="M0,6h129.995v114.996l-65.318-10L0,120.996V6z"/>
<path fill-rule="evenodd" clip-rule="evenodd" fill="#2697DE" d="M0,0h129.995v118.996l-65.318-10L0,118.996V0z"/>
<g>
	<g>
		<path fill-rule="evenodd" clip-rule="evenodd" fill="#FFFFFF" d="M51.5,18.282C63.246,32.77,67.021,62.46,67.021,62.46
			c9.977-5.826,19.051-16.643,19.051-16.643S76.888,25.495,51.5,18.282z M49.076,59.034c6.228-6.756,9.341-22.019,9.341-22.019
			s-8.998-6.271-22.567-6.608C47.851,42.223,49.076,59.034,49.076,59.034z M87.868,45.001c0,0,13.076,8.599,18.154,16.995
			c0,0,7.293-9.97,10.525-21.859C106.286,36.576,87.868,45.001,87.868,45.001z M16.557,37.812
			c10.898,6.138,13.734,19.611,13.734,19.611c8.945-6.666,8.971-16.604,8.971-16.604S26.82,36.089,16.557,37.812z"/>
	</g>
</g>
<g>
	<path fill="#FFFFFF" d="M25.707,86.589l1.108-1.288c1.288,1.468,3.384,2.905,6.26,2.905c4.074,0,5.242-2.276,5.242-3.983
		c0-5.871-11.981-2.816-11.981-9.795c0-3.265,2.936-5.332,6.56-5.332c2.965,0,5.242,1.049,6.77,2.816l-1.138,1.258
		c-1.438-1.737-3.475-2.516-5.721-2.516c-2.666,0-4.672,1.527-4.672,3.684c0,5.122,11.981,2.307,11.981,9.765
		c0,2.576-1.707,5.661-7.099,5.661C29.72,89.764,27.234,88.416,25.707,86.589z"/>
	<path fill="#FFFFFF" d="M44.07,93.628c0.33,0.149,0.898,0.239,1.258,0.239c0.958,0,1.618-0.39,2.217-1.768l1.138-2.575
		l-6.141-14.587h1.737l5.272,12.64l5.212-12.64h1.767l-7.488,17.642c-0.779,1.827-2.007,2.696-3.684,2.696
		c-0.509,0-1.168-0.09-1.558-0.21L44.07,93.628z"/>
	<path fill="#FFFFFF" d="M70.431,89.404v-2.307c-1.019,1.498-2.876,2.666-5.033,2.666c-3.834,0-6.439-2.936-6.439-7.578
		c0-4.582,2.605-7.607,6.439-7.607c2.067,0,3.894,1.048,5.033,2.695v-7.848h1.587v19.979H70.431z M70.431,85.779v-7.158
		c-0.839-1.408-2.727-2.636-4.763-2.636c-3.205,0-5.062,2.696-5.062,6.2s1.857,6.17,5.062,6.17
		C67.704,88.355,69.592,87.158,70.431,85.779z"/>
	<path fill="#FFFFFF" d="M75.225,87.787l1.857-3.235c0.778,0.749,1.797,1.438,3.175,1.438c1.887,0,3.115-1.289,3.115-3.205V69.426
		h4.283v13.419c0,4.702-2.966,6.919-7.039,6.919C78.579,89.764,76.662,89.195,75.225,87.787z"/>
	<path fill="#FFFFFF" d="M90.802,86.589l2.337-3.325c1.407,1.468,3.594,2.727,6.35,2.727c2.366,0,3.475-1.049,3.475-2.217
		c0-3.475-11.502-1.049-11.502-8.566c0-3.325,2.876-6.081,7.578-6.081c3.175,0,5.812,0.958,7.788,2.786l-2.366,3.175
		c-1.617-1.498-3.774-2.187-5.812-2.187c-1.797,0-2.815,0.779-2.815,1.977c0,3.145,11.473,1.019,11.473,8.477
		c0,3.654-2.636,6.41-7.998,6.41C95.445,89.764,92.689,88.476,90.802,86.589z"/>
</g>
</svg>
