<?xml version="1.0" encoding="utf-8"?>
<!-- Generator: Adobe Illustrator 16.0.0, SVG Export Plug-In . SVG Version: 6.00 Build 0)  -->
<!DOCTYPE svg PUBLIC "-//W3C//DTD SVG 1.1//EN" "http://www.w3.org/Graphics/SVG/1.1/DTD/svg11.dtd">
<svg version="1.1" id="Layer_1" xmlns="http://www.w3.org/2000/svg" xmlns:xlink="http://www.w3.org/1999/xlink" x="0px" y="0px"
	 width="155px" height="35px" viewBox="-49.741 29.409 155 35" enable-background="new -49.741 29.409 155 35" xml:space="preserve"
	>
<path display="none" fill="#1B7EBA" d="M0,6h129.996v114.996l-65.319-10L0,120.996V6z"/>
<path display="none" fill="#2697DE" d="M-101.835-93.218h333.666v305.432L64.174,186.547l-166.009,25.667V-93.218z"/>
<g>
	<g>
		<path d="M-22.057,29.409c9.306,11.478,12.296,35,12.296,35c7.904-4.615,15.093-13.186,15.093-13.186S-1.943,35.124-22.057,29.409z
			 M-23.978,61.695c4.935-5.353,7.4-17.445,7.4-17.445s-7.128-4.968-17.879-5.235C-24.948,48.376-23.978,61.695-23.978,61.695z
			 M6.757,50.578c0,0,10.359,6.812,14.382,13.463c0,0,5.777-7.897,8.338-17.317C21.349,43.903,6.757,50.578,6.757,50.578z
			 M-49.741,44.881c8.634,4.864,10.881,15.537,10.881,15.537c7.086-5.281,7.107-13.154,7.107-13.154S-41.61,43.516-49.741,44.881z"
			/>
	</g>
</g>
<g>
	<path d="M40.61,50.398l0.877-1.021c1.021,1.163,2.682,2.301,4.96,2.301c3.228,0,4.153-1.803,4.153-3.156
		c0-4.651-9.492-2.23-9.492-7.76c0-2.586,2.326-4.225,5.197-4.225c2.349,0,4.154,0.831,5.363,2.231l-0.901,0.997
		c-1.14-1.376-2.752-1.993-4.532-1.993c-2.112,0-3.702,1.21-3.702,2.918c0,4.058,9.493,1.827,9.493,7.737
		c0,2.041-1.353,4.484-5.625,4.484C43.79,52.913,41.82,51.845,40.61,50.398z"/>
	<path d="M55.159,55.975c0.262,0.118,0.711,0.189,0.997,0.189c0.76,0,1.282-0.309,1.756-1.4l0.902-2.041l-4.865-11.556h1.375
		L59.5,51.181l4.13-10.014h1.4l-5.933,13.977c-0.617,1.447-1.59,2.136-2.918,2.136c-0.403,0-0.926-0.072-1.234-0.168L55.159,55.975z
		"/>
	<path d="M76.043,52.628v-1.828c-0.808,1.187-2.278,2.112-3.988,2.112c-3.037,0-5.102-2.327-5.102-6.004
		c0-3.63,2.064-6.027,5.102-6.027c1.638,0,3.086,0.83,3.988,2.135v-6.218h1.258v15.829H76.043z M76.043,49.756v-5.671
		c-0.666-1.116-2.159-2.089-3.774-2.089c-2.539,0-4.01,2.137-4.01,4.913s1.471,4.888,4.01,4.888
		C73.884,51.797,75.377,50.849,76.043,49.756z"/>
	<path d="M79.842,51.347l1.47-2.563c0.617,0.593,1.425,1.139,2.517,1.139c1.494,0,2.468-1.021,2.468-2.539V36.8h3.393v10.631
		c0,3.725-2.35,5.481-5.576,5.481C82.499,52.913,80.98,52.462,79.842,51.347z"/>
	<path d="M92.182,50.398l1.852-2.635c1.115,1.164,2.848,2.161,5.03,2.161c1.876,0,2.754-0.832,2.754-1.757
		c0-2.752-9.112-0.831-9.112-6.786c0-2.635,2.277-4.818,6.004-4.818c2.515,0,4.604,0.759,6.17,2.208l-1.874,2.515
		c-1.282-1.187-2.991-1.732-4.605-1.732c-1.423,0-2.229,0.617-2.229,1.566c0,2.492,9.089,0.807,9.089,6.717
		c0,2.894-2.089,5.078-6.336,5.078C95.861,52.913,93.678,51.894,92.182,50.398z"/>
</g>
</svg>
